<?xml version="1.0" encoding="UTF-8"?>
<svg xmlns="http://www.w3.org/2000/svg" onmouseup="{ if(window.parent.document.onmouseup) window.parent.document.onmouseup(arguments[0]);}" xml:space="preserve" enable-background="new 0 0 313.4 327.2" viewBox="0 0 313.4 327.2" y="0px" x="0px" id="Layer_1" version="1.1" xmlns:xlink="http://www.w3.org/1999/xlink"><g><g><path data-cppathid="10000" d="M264.8,219.6c13-6.9,13.5-14.9,12.3-17.9l0,0c-0.1-0.2-0.1-0.4-0.2-0.5l0,0l0-4.1l0,0    c0.1-0.2,0.2-0.5,0.5-0.9l0,0c0.4-0.8,1.1-1.8,2-2.9l0,0c1.8-2.2,4.4-4.6,7.6-6l0,0c8-3.3,11.5-9.8,9.7-14.9l0,0    c0-0.1-0.1-0.3-0.2-0.4l0,0c-2-4.4-7-7.2-8.9-13.1l0,0c-0.2-0.6-0.4-1.4-0.5-2.1l0,0c-0.5-2.3-0.9-4-1.3-5.4l0,0    c-0.9-3.3-3.3-4.6-4.6-5.1l0,0c0-0.1-0.1-0.1-0.1-0.2l0,0c-0.3-0.7-0.5-2.3-1.1-4.1l0,0c-1-3.2-3.4-7.2-8.7-9.5l0,0    c-4.8-2.1-9-3.3-12.2-4.1l0,0c-3.1-0.7-5.2-1.4-5.2-1.5l0,0c-1.5-1-12.7-17-26.6-12.5l0,0c-0.3,0.1-0.6,0.2-0.9,0.4l0,0    c-12,5-21.9,17.8-24.5,26.2l0,0c-2.2,8-6.5,26.8-5.2,33.8l0,0c1.2,5.5,1.4,9.1,0,11.9l0,0c-1.9,4-2.7,9.2-1.3,13.4l0,0    c0.2,0.5,0.4,1,0.7,1.6l0,0c1.7,2.7,4.5,3.2,7.3,3.8l0,0c2.9,0.6,6.2,1.1,9.7,2.5l0,0c6.5,2.2,12.2,13.4,23.2,14.1l0,0    c6.6,0,11.3,4.9,22.9,0.3l0,0C260.7,221.7,262.7,220.8,264.8,219.6L264.8,219.6z M271.9,202.8l0.4,0.6c0,0,0,0,0.1,0.2l0,0    c0.1,1.1,1.9,5.1-9.7,11.8l0,0c-2,1.1-3.7,1.9-5.2,2.5l0,0c-9.7,3.9-11.7-0.2-20.9-0.6l0,0c-7.4,0.1-13.1-9.9-21.6-13.7l0,0    c-4-1.6-7.7-2.2-10.5-2.8l0,0c-2.8-0.5-4.2-1.2-4.3-1.6l0,0c-0.1-0.3-0.3-0.6-0.4-0.9l0,0c-0.9-2.4-0.3-7.1,1-9.7l0,0    c2.3-4.7,1.6-9.5,0.4-15.1l0,0c-1.1-4.2,2.9-24.2,5.1-31.4l0,0c1.7-6.4,11.5-18.9,21.4-22.7l0,0c0.2-0.1,0.5-0.2,0.7-0.3l0,0    c8.6-3.6,19.8,9.4,21.7,11.6l0,0c1.9,1.6,4,1.7,7.2,2.6l0,0c3.1,0.8,7,1.8,11.5,3.8l0,0c4.1,1.9,5.5,4.4,6.4,6.9l0,0    c0.5,1.4,0.7,2.8,1.1,4.1l0,0c0.3,0.9,0.7,2,2.2,2.7l0,0c2,1,1.3-0.1,2.5,2.5l0,0c0.3,1,0.7,2.6,1.2,4.8l0,0    c0.2,0.9,0.4,1.8,0.7,2.6l0,0c2.5,7.2,8.3,11.2,9.1,13.5l0,0l0,0c0.7,2-0.2,5.6-6.7,8.6l0,0c-4.3,1.9-7.5,4.9-9.6,7.6l0,0    c-2.2,2.9-3.3,4.6-3.6,6.7l0,0l2.4,0l-2.4,0.2L271.9,202.8L271.9,202.8z" fill="#FFFFFF"/><path data-cppathid="10001" d="M226,167.7c0,0,0.3-5.4,9.2-6c8.9-0.6,19.9,3.8,19.9,3.8s4.1,3,2.4,8.5c-1.7,5.5-5.8,4.8-8.8,4.9    c-3.1,0.1-19.8-4.3-19.8-4.3s-2.7-2.2-3.2-3.8C225.1,169.2,226,167.7,226,167.7z" fill="#FFFFFF"/></g><g><path data-cppathid="10002" d="M309.9,124.6c6.3-11.7,2.4-17.5-0.1-18.9l0,0c-0.2-0.1-0.3-0.2-0.5-0.3l0,0l-2.2-2.8l0,0    c0-0.2-0.1-0.5-0.1-0.9l0,0c-0.1-0.8-0.1-1.9,0-3.1l0,0c0.2-2.5,0.9-5.5,2.6-8.2l0,0c4.4-6.6,3.6-12.8-0.5-15.4l0,0    c-0.1-0.1-0.3-0.2-0.4-0.2l0,0c-3.9-1.9-9.3-1.3-13.9-4.3l0,0c-0.5-0.3-1-0.7-1.5-1.1l0,0c-1.6-1.4-2.8-2.3-3.9-3l0,0    c-2.4-1.8-5-1.5-6.3-1.1l0,0c-0.1,0-0.1-0.1-0.2-0.1l0,0c-0.6-0.4-1.7-1.3-3.1-2.2l0,0c-2.5-1.6-6.4-3.2-11.8-2l0,0    c-4.9,1.1-8.7,2.5-11.6,3.7l0,0c-2.8,1.2-4.8,1.8-4.8,1.7l0,0c-1.7,0.1-18.9-5.1-27.2,5.4l0,0c-0.2,0.2-0.3,0.5-0.5,0.7l0,0    c-6.6,9.8-7.4,23.9-4.9,31.1l0,0c2.6,6.7,9.4,22,14.1,26.1l0,0c3.9,3.2,6,5.6,6.4,8.2l0,0c0.7,3.8,2.9,7.8,6.2,10l0,0    c0.4,0.3,0.9,0.5,1.4,0.7l0,0c2.8,1,5.2-0.2,7.7-1.2l0,0c2.6-1.1,5.4-2.5,8.8-3.4l0,0c6.2-1.9,16.7,2.8,25.5-2.5l0,0    c5.1-3.5,11.3-2.5,17.8-11.9l0,0C307.9,128.1,308.9,126.5,309.9,124.6L309.9,124.6z M306.4,109.1l0.6,0.2c0,0,0,0,0.2,0.1l0,0    c0.7,0.7,4.2,2.5-1.2,13.4l0,0c-0.9,1.8-1.8,3.3-2.7,4.5l0,0c-5.4,7.8-9.1,6.1-16.4,10.6l0,0c-5.6,4-15.4,0.1-24,1.9l0,0    c-4,1-7.1,2.6-9.6,3.6l0,0c-2.5,1.1-3.9,1.4-4.2,1.1l0,0c-0.3-0.1-0.5-0.3-0.8-0.4l0,0c-2-1.2-4-4.7-4.4-7.3l0,0    c-0.8-4.5-3.9-7.4-7.8-10.7l0,0c-3.1-2.3-10.8-18.3-12.9-24.4l0,0c-2.1-5.3-1.3-19.2,4.3-27.1l0,0c0.1-0.2,0.3-0.4,0.4-0.6l0,0    c4.7-7.1,20.3-4,23-3.5l0,0c2.3,0.1,4-1,6.9-2l0,0c2.8-1.1,6.4-2.5,10.9-3.4l0,0c4.2-0.9,6.6,0.1,8.6,1.4l0,0    c1.1,0.7,2,1.5,3.1,2.2l0,0c0.7,0.4,1.6,1,3.2,0.7l0,0c2.1-0.4,0.9-0.8,3.2,0.4l0,0c0.8,0.5,1.9,1.4,3.5,2.7l0,0    c0.6,0.5,1.3,1,1.9,1.4l0,0c5.8,3.6,12.4,3.3,14.3,4.5l0,0l0,0c1.6,1.1,2.9,4-0.6,9.5l0,0c-2.3,3.6-3.1,7.3-3.4,10.4l0,0    c-0.1,3.2-0.1,5,0.8,6.6l0,0l1.9-1.3l-1.8,1.4L306.4,109.1L306.4,109.1z" fill="#FFFFFF"/><path data-cppathid="10003" d="M252.2,109.1c0,0-2.7-3.9,3.9-9c6.5-5.1,17.4-7.9,17.4-7.9s4.8-0.1,6.4,4.6c1.7,4.7-1.8,6.4-4.2,8.1    c-2.3,1.7-17.6,7.5-17.6,7.5s-3.2-0.1-4.5-0.9C252.3,110.6,252.2,109.1,252.2,109.1z" fill="#FFFFFF"/></g><g><path data-cppathid="10004" d="M160.9,141c9.9,1.7,13.7-2.7,14.4-5l0,0c0.1-0.2,0.1-0.3,0.1-0.4l0,0l1.8-2.4l0,0c0.2-0.1,0.4-0.2,0.7-0.4    l0,0c0.6-0.3,1.4-0.6,2.4-0.8l0,0c1.9-0.5,4.3-0.8,6.6-0.2l0,0c5.7,1.6,10.4-0.6,11.7-4.4l0,0c0-0.1,0.1-0.2,0.1-0.3l0,0    c0.9-3.5-0.4-7.4,1.3-11.7l0,0c0.2-0.5,0.4-1,0.6-1.5l0,0c0.8-1.6,1.4-2.7,1.7-3.7l0,0c1-2.3,0.4-4.2-0.1-5l0,0c0,0,0-0.1,0-0.1    l0,0c0.2-0.5,0.8-1.6,1.2-2.9l0,0c0.9-2.3,1.5-5.7-0.3-9.5l0,0c-1.5-3.4-3.2-6-4.5-7.8l0,0c-1.3-1.8-2.1-3.1-2-3.2l0,0    c-0.3-1.3,1.1-15.6-8.2-19.2l0,0c-0.2-0.1-0.4-0.1-0.6-0.2l0,0c-8.5-2.4-19.4,0.7-24.5,4.5l0,0c-4.8,3.7-15.4,12.9-17.9,17.5l0,0    c-1.9,3.7-3.4,6-5.3,7l0,0c-2.8,1.5-5.5,4.2-6.7,7.3l0,0c-0.1,0.4-0.3,0.8-0.3,1.2l0,0c-0.4,2.4,0.9,3.9,2.1,5.5l0,0    c1.2,1.6,2.7,3.4,3.9,5.8l0,0c2.3,4.2,0.3,13.3,5.7,18.6l0,0c3.5,3,3.6,7.9,11.8,10.4l0,0C157.8,140.4,159.2,140.7,160.9,141    L160.9,141z M172.1,134.3l-0.1,0.5c0,0,0,0,0,0.2l0,0c-0.4,0.7-1.3,3.8-10.4,2.6l0,0c-1.5-0.2-2.8-0.5-3.8-0.8l0,0    c-6.8-2-6-5.3-10.6-9.7l0,0c-3.9-3.2-2.3-11.7-5-17.7l0,0c-1.4-2.7-3-4.7-4.2-6.3l0,0c-1.2-1.6-1.6-2.6-1.5-2.9l0,0    c0-0.2,0.1-0.5,0.2-0.7l0,0c0.6-1.8,3-4.3,4.9-5.2l0,0c3.3-1.8,5.1-4.9,7-8.7l0,0c1.3-2.9,12.4-12.9,16.8-16.2l0,0    c3.7-3,14.5-6,21.3-3.8l0,0c0.2,0,0.3,0.1,0.5,0.2l0,0c6.1,1.7,6.1,14.3,6.1,16.5l0,0c0.3,1.8,1.3,2.8,2.6,4.7l0,0    c1.3,1.8,2.8,4.2,4.2,7.3l0,0c1.3,2.9,0.9,5,0.2,6.9l0,0c-0.4,1-0.9,1.9-1.2,2.9l0,0c-0.2,0.6-0.6,1.5-0.1,2.6l0,0    c0.6,1.5,0.7,0.5,0.2,2.6l0,0c-0.3,0.8-0.8,1.8-1.6,3.3l0,0c-0.3,0.6-0.6,1.2-0.8,1.9l0,0c-1.9,5.4-0.7,10.3-1.3,12l0,0l0,0    c-0.6,1.5-2.6,3.2-7.3,2l0,0c-3.1-0.8-6.1-0.5-8.4,0.2l0,0c-2.4,0.7-3.8,1.3-4.9,2.3l0,0l1.3,1.1l-1.4-1L172.1,134.3L172.1,134.3z    " fill="#FFFFFF"/><path data-cppathid="10005" d="M164.1,93.2c0,0,2.6-3.1,7.5,0.6c4.9,3.6,8.6,11.1,8.6,11.1s0.8,3.6-2.6,6.1c-3.4,2.5-5.2,0.3-6.8-1    c-1.6-1.3-8.4-11.4-8.4-11.4s-0.4-2.5,0-3.7C162.9,93.7,164.1,93.2,164.1,93.2z" fill="#FFFFFF"/></g><g><polygon data-cppathid="10006" points="147.9,281.4 148,281.8 148,281.4   " fill="none"/><path data-cppathid="10007" d="M158,240.8c3.5,0,16.7-9.7,15.3-20.8c-1.4-11.1-22.2-16-22.2-16s-6.9-0.7-9.7,3.5    c-2.8,4.2,4.9,8.3,4.9,8.3s13.9,5.6,13.2,9c-0.7,3.5-6.9,6.2-16.7,6.9c-9.7,0.7-15.3,11.8-11.1,22.2c4.2,10.4,21.5,12.5,20.8,15.3    c-0.7,2.8-3.5,4.9-9,4.2c-5.6-0.7-25,4.2-29.9,9.7c-4.9,5.6-0.7,19.4,1.4,24.3c2.1,4.9,7.6,9.7,11.8,7.6c4.2-2.1,4.2-7.6,0-12.5    c-4.2-4.9-2.8-8.3-2.1-12.5c0.7-4.2,10.4-2.8,25.7-4.2c15.3-1.4,18.7-13.2,18.1-20.8c-0.7-7.6-6.9-7.6-12.5-8.3    c-5.6-0.7-13.2-2.8-13.2-9.7C142.8,240.2,154.6,240.8,158,240.8z M148.2,258.1c10.6,3.1,16.8,4.9,16.9,10.6c0,0.1,0,0.2,0,0.3    c-0.4,5.7-8.7,14-17.2,14.1c-0.1,0-0.2,0-0.4,0c-2.4-0.1-5-0.2-7.7-0.2c-6.7,0-13.5,0.9-16.1,5.6c-1.9,3.3-2.6,5.8-2.6,8    c0,2.4,0.8,4.2,1.9,6c1.5,2.5,3.3,4.7,3.4,6.6c0,0.7-0.4,1.4-1.1,1.8c-0.5,0.3-1.1,0.4-1.7,0.4c-2.9,0-7.6-2.3-7.6-7.1    c0-3.3-1.9-8-1.9-12.3c0-2.1,0.5-4.2,2.1-5.9c4.4-4.7,9.3-8.4,26.7-8.6c13.7-0.2,17.5-5,17.5-7.4c0-0.6-0.2-1.1-0.5-1.3    c-0.8-0.8-6.9-2.4-12.7-4.6c-5.9-2.3-11.8-5.2-12.8-9.9c-0.5-2.7-0.8-5.2-0.8-7.5c0-4.8,1.3-8.6,4.5-10.3c4.6-2.4,18-2.7,22.6-8.5    c1.6-2,2.2-3.8,2.2-5.3c0-3-2.5-5.4-5.8-6.5c-5.2-1.6-6.8-2-6.8-2l-0.1,0l-2.8-1.9l-0.1-0.1l-0.1-0.1c0-0.1-1.2-1.6-1.2-3.2    c0-0.6,0.2-1.2,0.7-1.6c0.5-0.4,1.2-0.6,2.2-0.6c0.4,0,0.9,0,1.4,0.1c3.2,0.5,8,2.6,12.1,5.1c4,2.5,7.4,5,7.6,7.4    c0,3.4-0.2,16.3-13.1,17.7c-12.4,1.4-14.9,3.1-15.9,6.4c-0.4,1.3-0.9,3.2-0.9,5.3C140,252,141.4,256,148.2,258.1z" fill="#FFFFFF"/><path data-cppathid="10008" d="M28.4,196.1c4,3,8.6-4.5,8.6-4.5s6.2-13.6,9.6-12.8c3.4,0.9,5.9,7.2,6.2,17c0.2,9.7,11.1,15.8,21.7,12.1    c10.6-3.7,13.5-20.9,16.2-20.1c2.7,0.8,4.7,3.7,3.7,9.2c-1,5.5,3,25.2,8.3,30.3c5.3,5.1,19.4,1.6,24.3-0.2    c5-1.9,10.1-7.2,8.2-11.4c-1.9-4.3-7.4-4.5-12.5-0.6c-5,3.9-8.4,2.4-12.6,1.5c-4.1-0.9-2.3-10.5-3-25.9c-0.7-15.3-12.3-19.3-20-19    c-7.7,0.3-8,6.6-8.9,12.1c-1,5.5-3.4,13-10.3,12.7c-6.9-0.3-5.7-12.1-5.5-15.5c0.2-3.5-8.9-17.1-20.1-16.2    c-11.2,0.9-17,21.4-17,21.4S24.4,193.2,28.4,196.1z M27.8,187.3c0.6-3.2,3-7.9,5.6-11.9c2.7-3.9,5.4-7.2,7.8-7.2    c3.4,0.1,16.2,1,17.1,13.9c0.8,12.4,2.4,15,5.7,16.2c1.3,0.5,3.2,1.1,5.2,1.2c3.7,0.1,7.7-1.1,10.1-7.8    c3.6-10.5,5.7-16.5,11.3-16.4c0.1,0,0.2,0,0.3,0c5.7,0.6,13.5,9.3,13.2,17.8c0,0.1,0,0.2,0,0.3c-0.2,2.4-0.4,5-0.6,7.7    c-0.3,6.7,0.3,13.5,4.8,16.4c3.2,2.1,5.7,2.9,7.8,2.9c2.4,0.1,4.3-0.6,6.1-1.6c2.6-1.4,4.8-3.1,6.7-3c0.7,0,1.4,0.4,1.8,1.2    c0.2,0.5,0.3,1.1,0.3,1.8c-0.1,2.9-2.6,7.4-7.4,7.3c-3.3-0.2-8.1,1.5-12.4,1.3c-2.1-0.1-4.2-0.7-5.8-2.4c-4.4-4.6-8-9.7-7.4-27.1    c0.5-13.7-4.2-17.7-6.6-17.8c-0.6,0-1.1,0.2-1.4,0.5c-0.8,0.7-2.7,6.8-5.1,12.5c-2.5,5.7-5.8,11.6-10.5,12.3    c-2.7,0.4-5.3,0.6-7.5,0.5c-4.8-0.2-8.5-1.7-10-5c-2.1-4.7-1.8-18.1-7.4-23c-1.9-1.7-3.7-2.4-5.2-2.5c-3-0.2-5.6,2.2-6.7,5.5    c-1.8,5.2-2.4,6.7-2.4,6.7v0l0,0.1l-2,2.7l-0.1,0.1l-0.1,0.1c-0.1,0-1.6,1.1-3.2,1c-0.6,0-1.2-0.2-1.6-0.8    c-0.4-0.5-0.6-1.3-0.5-2.2C27.6,188.3,27.7,187.8,27.8,187.3z" fill="#FFFFFF"/><path data-cppathid="10009" d="M125.8,202.8c0,0,3.6,2.3,6.3,0.8c2.6-1.5-0.4-5.9-0.4-5.9s-6.1-6.8-4.7-8.5c1.3-1.7,5.5-1.5,11,0.8    c5.5,2.3,11.5-2.3,12.1-9.1c0.6-6.8-8.3-12.7-7.2-14c1.1-1.3,3.2-1.7,6,0.2c2.8,1.9,14.8,4.6,18.9,2.8c4.2-1.7,5.7-10.4,5.9-13.6    c0.2-3.2-1.5-7.4-4.4-7.4c-2.8,0-4.3,3-3.4,6.8c0.9,3.8-0.8,5.3-2.3,7.4c-1.5,2.1-6.4-1.3-15.1-4.7c-8.7-3.4-13.8,2.1-15.5,6.4    c-1.7,4.4,1.7,6.1,4.5,7.9c2.8,1.9,6.4,5.1,4.5,8.9c-1.9,3.8-8.1,0.2-10-0.8c-1.9-1-11.7,0.7-14,7.2    C115.8,194.4,125.8,202.8,125.8,202.8z M119.6,189.5c0.9-1.9,4.6-8.8,12-6.1c7.1,2.6,9,2.4,10.4,0.8c0.6-0.6,1.4-1.5,1.9-2.6    c1-2,1.3-4.6-1.9-7.5c-4.9-4.6-7.8-7.2-6.3-10.4c0-0.1,0.1-0.1,0.1-0.2c1.7-3,8.5-5.2,13.2-3c0.1,0,0.1,0.1,0.2,0.1    c1.3,0.7,2.7,1.5,4.2,2.2c3.7,1.8,7.6,3.2,10.3,1.4c1.9-1.3,3-2.5,3.6-3.6c0.6-1.3,0.7-2.5,0.6-3.8c-0.1-1.8-0.5-3.5,0-4.5    c0.2-0.4,0.6-0.7,1.1-0.7c0.4,0,0.7,0.1,1.1,0.3c1.6,0.8,3.5,3.3,2.2,5.9c-0.9,1.8-1.2,4.9-2.3,7.2c-0.6,1.2-1.4,2.2-2.8,2.6    c-3.6,1.3-7.4,2.1-16.9-2.6c-7.5-3.7-10.9-2-11.5-0.7c-0.2,0.3-0.2,0.6-0.1,0.9c0.2,0.6,3.1,3.2,5.7,6c2.6,2.8,5,6.1,4.3,8.9    c-0.5,1.6-1,3.1-1.6,4.3c-1.3,2.6-3,4.3-5.3,4.4c-3.2,0-10.5-3.4-14.7-1.5c-1.4,0.6-2.3,1.4-2.7,2.3c-0.8,1.7-0.1,3.6,1.4,5.1    c2.4,2.3,3.2,3,3.2,3h0l0,0l1,1.8l0,0.1l0,0.1c0,0,0.2,1.2-0.2,2.1c-0.1,0.3-0.4,0.6-0.8,0.7c-0.4,0.1-0.8,0-1.4-0.3    c-0.2-0.1-0.5-0.3-0.7-0.4c-1.6-1.2-3.7-3.6-5.2-6.1C120.2,193.2,119.1,190.9,119.6,189.5z" fill="#FFFFFF"/><path data-cppathid="10010" d="M40.9,224c1.1,3.2,8.8,12.7,13.2,13.9c4.3,1.2,10.9-4.7,13-7.1c2.1-2.4,3.3-6.7,1.1-8.5    c-2.2-1.7-5.3-0.3-6.9,3.3c-1.6,3.6-3.8,3.7-6.3,4.4c-2.5,0.7-4.3-5-9-13c-4.8-8-12.2-6.9-16.2-4.5c-4,2.4-2.4,5.8-1.3,9.1    c1.1,3.2,1.9,8-1.9,9.8c-3.8,1.8-6.5-4.9-7.5-6.8c-0.9-1.9-9.7-6.6-15.5-2.9c-5.7,3.7-3,16.4-3,16.4s1.4,4,4.5,4.4    c3,0.4,3.3-4.9,3.3-4.9s-0.6-9.1,1.5-9.6c2.1-0.5,5.3,2.2,8.2,7.3c2.9,5.2,10.5,5.3,15.1,0.3c4.6-5,1.2-15.1,2.9-15.5    C37.9,219.8,39.8,220.8,40.9,224z M34.5,215.7c-0.3,0.2-0.5,0.4-0.6,0.6c-0.2,0.6,0.5,4.4,0.8,8.2c0.3,3.8,0.2,7.9-2.1,9.6    c-1.4,1-2.7,1.8-3.9,2.4c-2.6,1.3-5,1.5-6.8,0.2c-2.5-1.9-6.2-9.2-10.6-10.2c-1.5-0.4-2.7-0.2-3.5,0.2c-1.7,0.8-2.3,2.8-2,4.9    c0.5,3.3,0.7,4.3,0.7,4.3v0l0,0.1l-0.3,2l0,0.1l0,0.1c0,0-0.6,1-1.4,1.5c-0.3,0.1-0.7,0.2-1.1,0c-0.4-0.2-0.7-0.5-0.9-1    c-0.1-0.2-0.2-0.5-0.3-0.8c-0.6-1.9-0.7-5.1-0.4-8c0.3-2.9,0.8-5.4,2.1-6.1c1.9-0.9,9-4.1,13.2,2.6c4,6.4,5.6,7.4,7.7,7.1    c0.8-0.1,2-0.3,3.1-0.9c2-1,3.8-2.8,3.2-7.1c-1.1-6.7-1.7-10.5,1.4-12.1c0.1,0,0.1-0.1,0.2-0.1c3.2-1.3,10,1.1,12.2,5.8    c0,0.1,0.1,0.1,0.1,0.2c0.6,1.3,1.2,2.8,1.9,4.3c1.8,3.7,4,7.2,7.3,7.4c2.3,0.2,3.9-0.1,5.1-0.7c1.3-0.6,2.1-1.6,2.8-2.6    c1-1.5,1.7-3,2.7-3.6c0.4-0.2,0.9-0.2,1.3,0.1c0.3,0.2,0.5,0.5,0.7,0.9c0.8,1.6,0.7,4.8-1.9,6c-1.8,0.9-3.9,3.2-6.3,4.3    c-1.2,0.6-2.5,0.8-3.8,0.4c-3.7-1.2-7.1-2.9-11.8-12.4C39.4,215.9,35.8,215.1,34.5,215.7z" fill="#FFFFFF"/><path data-cppathid="10011" d="M92.6,143.9c1.8-0.2,4.3,0,4.8,2.2c0.5,2.2-3.3,2.8-4.4,3c-1.1,0.2-4.6,4.2-3.4,7.5c1.2,3.4,8,3.5,8,3.5    s2.2-0.2,2.8-1.7c0.6-1.5-2.1-2.3-2.1-2.3s-4.7-0.8-4.7-1.9c0-1.1,1.8-2.4,4.8-3.3c3-0.9,4-4.7,2-7.7c-2-3-7.6-2.5-7.6-3.4    c0-0.9,0.8-1.8,2.5-1.9c1.8-0.2,7.5-3,8.7-5.1c1.2-2.1-1.1-6.1-2.1-7.5c-1-1.4-3-2.5-4.2-1.6c-1.2,0.9-0.8,2.7,0.8,3.9    c1.6,1.2,1.4,2.4,1.5,3.8c0.1,1.3-3.1,1.6-7.8,3c-4.7,1.5-5,5.4-4.2,7.7C88.8,144.5,90.8,144.1,92.6,143.9z M93.3,135.2    C93.4,135.2,93.4,135.2,93.3,135.2c0.9-0.2,1.7-0.3,2.5-0.5c2.1-0.5,4.2-1.2,4.7-2.8c0.4-1.2,0.4-2,0.3-2.7    c-0.2-0.7-0.5-1.3-1-1.8c-0.6-0.7-1.4-1.2-1.5-1.8c0-0.2,0-0.5,0.2-0.6c0.1-0.1,0.3-0.2,0.5-0.2c0.9-0.2,2.5,0.2,2.9,1.7    c0.2,1,1.1,2.4,1.4,3.7c0.1,0.7,0.1,1.4-0.3,2c-1.1,1.8-2.3,3.3-7.8,4.5c-4.3,1-5.1,2.7-5,3.5c0,0.2,0.1,0.3,0.3,0.4    c0.3,0.2,2.3,0.3,4.3,0.6c2,0.3,4.1,0.8,4.7,2.2c0.3,0.8,0.6,1.6,0.8,2.3c0.3,1.5,0.2,2.8-0.7,3.5c-1.3,1-5.4,2-6.5,4.2    c-0.4,0.7-0.4,1.3-0.3,1.8c0.2,1,1.2,1.5,2.3,1.6c1.7,0.1,2.3,0.2,2.3,0.2l0,0l1,0.4l0,0l0,0c0,0,0.5,0.4,0.6,0.9    c0,0.2,0,0.4-0.1,0.6c-0.1,0.2-0.4,0.3-0.6,0.3c-0.1,0-0.3,0-0.4,0.1c-1.1,0.1-2.7-0.3-4.2-0.8c-1.4-0.5-2.7-1.1-2.9-1.8    c-0.2-1.1-1-5.1,2.9-6.4c3.8-1.3,4.4-2,4.6-3.1c0-0.4,0.1-1.1-0.1-1.7c-0.3-1.1-1-2.3-3.2-2.5c-3.5-0.3-5.6-0.4-6-2.2    c0,0,0-0.1,0-0.1C88.6,139,90.7,135.8,93.3,135.2z" fill="#FFFFFF"/><path data-cppathid="10012" d="M93.5,274.2c-1.7,1.4-1.1,3.9,1.2,5.7c2.4,1.8,2.1,3.5,2.2,5.5c0.1,2-4.5,2.3-11.3,4.4    c-6.8,2.1-7.3,7.8-6.2,11.3c1.1,3.4,3.9,2.8,6.5,2.6c2.6-0.2,6.3,0,7,3.1c0.7,3.2-4.8,4-6.3,4.3c-1.6,0.3-6.6,6.1-4.9,11    c1.7,4.9,11.7,5.1,11.7,5.1s3.2-0.4,4.1-2.5c0.9-2.2-3-3.3-3-3.3s-6.9-1.2-6.9-2.8c0-1.6,2.5-3.5,6.9-4.8    c4.4-1.3,5.8-6.9,2.9-11.2c-2.9-4.3-11-3.6-11-4.9c0-1.3,1.1-2.6,3.7-2.8c2.6-0.2,11-4.3,12.6-7.4c1.7-3-1.6-8.9-3-10.9    C98.2,274.5,95.2,272.8,93.5,274.2z M101.3,286.5c-1.5,2.6-3.4,4.8-11.3,6.6c-6.2,1.4-7.5,4-7.2,5.1c0.1,0.3,0.2,0.5,0.4,0.6    c0.4,0.3,3.4,0.4,6.2,0.8c2.9,0.5,5.9,1.2,6.8,3.3c0.5,1.2,0.9,2.3,1.1,3.3c0.5,2.2,0.2,4-1.1,5.1c-1.9,1.5-7.9,3-9.5,6.1    c-0.5,1.1-0.6,1.9-0.5,2.6c0.3,1.4,1.7,2.2,3.3,2.4c2.5,0.2,3.3,0.3,3.3,0.3h0l1.5,0.6l0,0l0,0c0,0,0.7,0.6,0.8,1.3    c0.1,0.3,0,0.6-0.2,0.8c-0.2,0.3-0.5,0.4-0.9,0.5c-0.2,0-0.4,0.1-0.6,0.1c-1.5,0.1-3.9-0.4-6-1.1c-2.1-0.8-3.9-1.6-4.2-2.6    c-0.3-1.5-1.5-7.4,4.2-9.4c5.5-1.9,6.5-2.9,6.6-4.5c0.1-0.6,0.1-1.6-0.1-2.5c-0.4-1.7-1.4-3.4-4.7-3.6c-5.2-0.4-8.1-0.6-8.7-3.2    c0-0.1,0-0.1,0-0.1c-0.4-2.6,2.6-7.2,6.5-8.1c0,0,0.1,0,0.2,0c1.1-0.2,2.3-0.4,3.5-0.7c3.1-0.7,6-1.7,6.8-4.1    c0.5-1.7,0.6-2.9,0.4-3.9c-0.2-1.1-0.8-1.8-1.4-2.6c-0.9-1-2-1.8-2.2-2.7c-0.1-0.3,0-0.7,0.3-0.9c0.2-0.2,0.5-0.3,0.8-0.3    c1.3-0.3,3.7,0.3,4.2,2.5c0.3,1.5,1.7,3.5,2.1,5.4C101.8,284.6,101.8,285.6,101.3,286.5z" fill="#FFFFFF"/><path data-cppathid="10013" d="M113.6,239.5c-3.5-1.3-6.3,1.6-6.4,6.5c-0.1,4.9-2.6,5.9-5.2,7.7c-2.5,1.8-7.5-4.5-17.1-12.6    c-9.6-8-17.7-3.9-21.2,0.5c-3.5,4.4,0.1,8,3,11.5c2.9,3.5,6.2,9,2.7,12.6c-3.6,3.6-10.1-3.5-12.1-5.5c-2-2-14.7-4.5-19.6,2.1    c-4.9,6.6,4.7,21,4.7,21s3.7,4.3,7.4,3.8c3.7-0.6,1.4-7.1,1.4-7.1s-5.2-10.8-3-12.3c2.2-1.4,7.2,0.7,13.3,5.9    c6,5.2,14.9,2.6,17.9-5.2c2.9-7.8-6.1-18.8-4.3-19.9c1.8-1,4.5-0.5,7.4,3c2.9,3.5,16.7,12.2,22.3,12c5.7-0.1,10.4-9.7,11.6-13.4    C117.8,246.5,117.1,240.8,113.6,239.5z M114.2,251.4c-1.7,1.7-3,5.3-5.2,7.5c-1.1,1.1-2.5,1.9-4.2,1.9c-4.9-0.1-9.8-0.9-20-10.8    c-8.1-7.8-12.7-7.4-13.9-6.2c-0.3,0.3-0.4,0.7-0.4,1c0,0.8,2.8,5.2,5.1,9.7c2.3,4.5,4.2,9.5,2.4,12.5c-1.1,1.7-2.2,3.2-3.4,4.4    c-2.5,2.5-5.1,3.7-7.9,2.7c-3.9-1.4-11.8-8.9-17.5-8.5c-2,0.1-3.2,0.7-4,1.5c-1.6,1.6-1.3,4.3,0.1,6.7c2.2,3.8,2.9,5,2.9,5l0,0.1    l0.7,2.6l0,0.1l0,0.1c0,0-0.1,1.5-0.9,2.3c-0.3,0.3-0.7,0.5-1.2,0.4c-0.5-0.1-1-0.4-1.6-0.9c-0.2-0.2-0.5-0.5-0.8-0.9    c-1.7-2.1-3.3-6-4.5-9.6c-1.1-3.6-1.7-6.9-0.6-8.2c1.7-1.8,8.5-8.3,16.7-1.7c7.9,6.4,10.3,6.9,12.5,5.8c0.9-0.4,2.2-1.2,3.2-2.2    c1.9-1.9,3.1-4.8,0.2-9.8c-4.6-7.7-7.3-12.1-4.4-15.2c0.1-0.1,0.1-0.1,0.2-0.2c3.1-2.8,12.2-2.3,17.2,2.5c0.1,0.1,0.1,0.1,0.2,0.2    c1.3,1.4,2.8,3,4.4,4.5c3.9,3.9,8.3,7.2,12.3,6.3c2.8-0.6,4.5-1.6,5.6-2.7c1.2-1.2,1.7-2.7,2-4.2c0.4-2.2,0.5-4.3,1.4-5.4    c0.3-0.4,1-0.5,1.5-0.3c0.4,0.1,0.8,0.4,1.2,0.8C115.2,245.1,116.7,248.9,114.2,251.4z" fill="#FFFFFF"/></g><g><path data-cppathid="10014" d="M69,30.4c-3.8,12.7,1.5,18.5,4.4,19.7l0,0c0.2,0.1,0.4,0.2,0.5,0.3l0,0l2.9,2.8l0,0    c0.1,0.2,0.2,0.5,0.4,0.9l0,0c0.3,0.8,0.6,1.9,0.7,3.2l0,0c0.4,2.6,0.4,5.8-0.8,8.7l0,0c-3,7.2-0.7,13.7,4,16.1l0,0    c0.1,0,0.3,0.2,0.4,0.2l0,0c4.4,1.7,9.7,0.6,15.1,3.4l0,0c0.6,0.3,1.2,0.7,1.8,1.1l0,0c1.9,1.3,3.4,2.2,4.6,2.8l0,0    c2.9,1.7,5.4,1.1,6.6,0.6l0,0c0,0,0.1,0,0.2,0.1l0,0c0.7,0.4,2,1.2,3.6,2.1l0,0c2.9,1.5,7.3,2.8,12.5,1.1l0,0    c4.7-1.5,8.3-3.3,11-4.7l0,0c2.5-1.5,4.4-2.3,4.5-2.2l0,0c1.7-0.2,20.4,3.8,26.5-7.8l0,0c0.1-0.3,0.2-0.5,0.4-0.8l0,0    c4.5-10.7,2.1-25.6-2.1-32.9l0,0c-4.2-6.8-14.6-22.3-20.3-26.2l0,0c-4.6-3-7.3-5.3-8.4-8.1l0,0c-1.5-3.9-4.7-7.9-8.6-10l0,0    c-0.5-0.2-1-0.5-1.5-0.6l0,0c-3-0.8-5.3,0.6-7.6,1.9l0,0c-2.4,1.4-4.9,3.1-8.2,4.2l0,0C105.7,8.8,94,4.7,86.3,11l0,0    c-4.4,4.1-10.9,3.6-15.4,13.9l0,0C70.2,26.5,69.5,28.3,69,30.4L69,30.4z M76,46.2l-0.7-0.1c0,0,0,0-0.2-0.1l0,0    c-0.9-0.7-4.8-2.3-1.8-14l0,0c0.5-1.9,1.1-3.6,1.7-4.9l0,0c3.7-8.6,7.9-7,14.3-12.4l0,0c4.8-4.6,15.7-1.3,24-3.9l0,0    c3.8-1.4,6.7-3.3,8.9-4.6l0,0c2.2-1.4,3.7-1.8,4-1.5l0,0c0.3,0.1,0.6,0.2,0.9,0.3l0,0c2.3,1.1,5.2,4.6,6.1,7.3l0,0    c1.8,4.6,5.6,7.4,10.3,10.5l0,0c3.7,2.2,15.1,18.3,18.7,24.5l0,0c3.3,5.4,5.7,20,1.8,28.6l0,0c-0.1,0.2-0.2,0.4-0.3,0.7l0,0    c-3.2,7.8-19.8,5.8-22.6,5.4l0,0c-2.4,0.1-3.9,1.3-6.6,2.7l0,0c-2.6,1.4-5.9,3.1-10.3,4.5l0,0c-4,1.3-6.7,0.4-9.1-0.8l0,0    c-1.3-0.7-2.4-1.4-3.6-2.1l0,0c-0.8-0.4-1.9-1-3.4-0.5l0,0c-2,0.5-0.8,0.9-3.4-0.2l0,0c-0.9-0.5-2.3-1.3-4.1-2.6l0,0    c-0.7-0.5-1.5-1-2.3-1.4l0,0C91.6,78.3,85,79.1,82.8,78l0,0l0,0c-1.9-1-3.8-3.9-1.5-9.9l0,0c1.5-3.9,1.5-7.9,1.1-11.1l0,0    c-0.6-3.3-1.1-5.2-2.3-6.8l0,0l-1.6,1.5l1.5-1.6L76,46.2L76,46.2z" fill="#FFFFFF"/><path data-cppathid="10015" d="M131.2,41.9c0,0,3.6,3.9-1.9,9.7c-5.5,5.8-15.9,9.6-15.9,9.6s-4.8,0.5-7.6-4.3c-2.8-4.8,0.4-6.8,2.4-8.8    c2-1.9,16.2-9.3,16.2-9.3s3.3-0.1,4.8,0.6C130.8,40.3,131.2,41.9,131.2,41.9z" fill="#FFFFFF"/></g></g><g/><g/><g/><g/><g/><g/></svg>