<?xml version="1.0" encoding="UTF-8"?>
<svg xmlns="http://www.w3.org/2000/svg" onmouseup="{ if(window.parent.document.onmouseup) window.parent.document.onmouseup(arguments[0]);}" xml:space="preserve" enable-background="new 0 0 236.4 237.2" viewBox="0 0 236.4 237.2" y="0px" x="0px" id="Layer_1" version="1.1" xmlns:xlink="http://www.w3.org/1999/xlink"><g><rect data-cppathid="10000" height="6.3" width="9.7" fill="#FFFFFF" y="115.5" x="86.8"/><path data-cppathid="10001" d="M106,149.1c2.4,3.5,5.2,6.3,7.4,8.2c1.3,1.1,2.4,1.9,3.1,2.2c1.8,0.9,1.3-1.6,1.3-1.6s0-0.2-0.1-0.7   c-0.4-1.9-1.9-7.9-6.8-15c-6-8.6-12.1-8.8-12.1-8.8s0.1-0.2-0.3,0.2c-0.4,0.5-0.1,1.7-0.1,1.7C98.6,138.6,102.2,143.6,106,149.1z" fill="#FFFFFF"/><rect data-cppathid="10002" height="1.6" width="35.4" fill="#FFFFFF" y="216.3" x="82.8"/><rect data-cppathid="10003" height="3.3" width="134.4" fill="#FFFFFF" y="52.8" x="69.7"/><polygon data-cppathid="10004" points="204.1,105 101.3,105 98,105 69.7,105 69.7,108.3 98.3,108.3 101.5,108.3 204.1,108.3  " fill="#FFFFFF"/><path data-cppathid="10005" d="M236.2,160v-0.5l-6-10h-16.1l-2.1,2.1l-0.4-0.3c0-4.6,0-24.6,0-35.8l10-8.9l-10-8.1v-35l9.7-8.9l-9.7-8V0   h-147v46.4l-11.4,8.1l11.4,9v4.1H15.9c-6.1,0-11.1,4.9-11.2,11C4.3,80.8,0,100.8,0,141.5c0,40.7,4.3,60.4,4.7,62.5   c0.1,6.1,5.1,11,11.2,11l60.7,0c0,0.4,0,0.8,0,1.2c0,1.2,0,2.3,0,3c0,4.5,0.9,7.3,2.7,9.1c1.9,1.8,4.2,1.9,6.2,1.9   c3.9,0,25.9,0,30.9,0c0,0,0.1,0,0.1,0c3.4,0,5.7-2.1,6.7-4.4c1-2.3,1.2-4.8,1.2-6.5c0-1-0.1-1.7-0.1-1.9c0-0.2,0-1-0.1-2.8   c0-1.1,0-2.5-0.1-4.3c0-0.7,0-1.4,0-2.2c-0.1-7.3-0.1-19.7-0.1-40.3c0-2.5-0.1-4.9-0.3-7.2h5.1c-0.3,1-0.5,2.1-0.8,3.1   c-1.5,7-1.6,13.5-1.6,15.4c0,0.3,0,0.5,0,0.5c0,0-0.4,32.5-0.4,44c0,1.1,0,2,0,2.7c0,4,1.1,6.9,3.1,8.6c2,1.7,4.6,2.1,7.2,2.1   c4.9,0,30.1,0,40,0c0.1,0,0.1,0,0.2,0c4.7,0,7.7-2.5,9-5.2c0.8-1.6,1.2-3.1,1.4-4.4c13.6,0,35.3,0,36.8,0c0.2,0,0.5,0,1.1,0   c1.5,0,4.3-0.2,6.9-2c2.6-1.8,4.7-5.2,4.7-10.6C236.4,202.6,236.2,160,236.2,160z M64.8,211.7H15.9c-4.4,0-7.9-3.5-7.9-7.9v-0.2   l0-0.2c0,0-0.3-1.1-0.7-3.6c-1.3-7.4-4-26.3-4-58.3c0-21.4,1.2-37,2.4-47.3c0.6-5.1,1.2-8.9,1.6-11.4C7.7,80.4,8,79.2,8,79.2L8,79   v-0.2c0-4.4,3.5-7.9,7.9-7.9h48.8v27.5l-11.9,8.1l11.9,9.1v14.8H7.2v23.7h53.6l-7.2,5.2l11.2,9V211.7z M120.3,224.4   c-0.8,1.6-1.7,2.5-3.9,2.5c-4.9,0-26.9,0-30.9,0c-1.9,0-3.2-0.2-3.9-1c-0.8-0.7-1.7-2.6-1.7-6.8c0-0.7,0-1.8,0-3c0-0.5,0-1.1,0-1.6   c0-1.3,0-2.8,0-4.3c0.1-15.8,0.3-43.9,0.3-44c0,0,0-0.2,0-0.6c0-0.9,0-2.7,0.1-5.1c0-1,0.1-2.1,0.2-3.3c0.2-2.6,0.4-5.5,0.9-8.4   c1-7.6,3.3-15.5,6.8-18.7l0.4-0.4l0.3-2.2h5.5l0.2,0.8l0.3,1.4l1.4-0.1c0,0,0.1,0,0.2,0c1.3,0,7.4,0.3,13.1,5.1   c4.5,3.8,8.9,10.5,10.6,22.7c0.1,1,0.3,2.1,0.4,3.3c0.2,2.2,0.3,4.6,0.3,7.2c0,22.8,0.1,35.6,0.2,42.5c0,1.8,0,3.3,0.1,4.3   c0,2.2,0.1,3,0.1,3v0.1v0.1c0,0,0.1,0.6,0.1,1.6C121.2,220.7,121,222.9,120.3,224.4z M123.5,157.3c-1.7-13-6.5-20.8-11.8-25.2   c-5.6-4.7-11.5-5.6-14.2-5.8l-0.4-2.1l-11,0l-0.2,1.4l-0.3,2.5c-4.4,4.6-6.3,12.6-7.4,20.3c-0.5,3.1-0.7,6.2-0.9,8.9h-7.6v3.3h7.4   c-0.1,2.4-0.1,4.2-0.1,5.1c0,0.4,0,0.6,0,0.6c0,0-0.2,28.1-0.3,43.9h-7.5v-44l-8.4-6.7l7.5-5.4l0.9-0.7v-23v-17l-8.8-6.7l8.8-6   V70.9v-3.3v-6.2l-8.5-6.7l8.5-6.1V4.3h138.2v44.2l0.8,0.6l6.6,5.5l-7.4,6.9v39l7.7,6.2l-7.7,6.8v1c0,9.2,0,25.5,0,33.3   c-0.2-0.3-0.5-0.6-0.8-1c-1.3-1.5-3.6-3-6.9-3c-5.4,0-17.5,0-17.5,0c-0.1,0-1.6,0-3.3,0.8c-1.7,0.8-3.5,2.8-3.4,5.9   c0,0.8,0,1.5,0,2c-1.6-1.4-3.3-2.5-4.9-3.5c-7.6-4.3-15.4-4.9-18.4-5l-0.6-1.8l-13.2,0l-0.3,1.3l-0.4,2.1   c-3.8,2.7-6.3,7.1-7.9,11.7H123.5z M129.8,179.1c0-1.7,0.1-8.1,1.5-14.7c1.4-6.7,4.2-13.5,8.8-16.4l0.6-0.4l0.4-2.1h8.1l0.2,0.7   l0.4,1.2l1.3-0.1c0,0,0.1,0,0.3,0c1.8,0,10,0.3,17.5,4.6c1.7,1,3.4,2.2,5,3.7c0.8,0.7,1.5,1.5,2.3,2.4c3.7,4.3,6.5,10.5,7.1,19.3   c0.1,1.2,0.1,2.3,0.1,3.6c0,1.1,0,2.3,0,3.3h-1.4h-10.6h-3.3h-38.5c0-2.8,0.1-4.6,0.1-4.6C129.8,179.5,129.8,179.4,129.8,179.1z    M183.7,227.6c-0.2,0.9-0.5,2-0.9,2.9c-1,1.9-2.5,3.4-6.2,3.4c-9.8,0-35,0-40,0c-2.3,0-4-0.4-5.1-1.3c-1.1-0.9-1.9-2.6-2-6.2   c0-0.7,0-1.6,0-2.7c0-1.4,0-3.2,0-5.1h39.2h3.4h11.7c0,3.2,0.1,4.9,0.1,5.7c0,0.4,0,0.6,0,0.6c0,0,0,0.1,0,0.4   C183.9,225.8,183.8,226.6,183.7,227.6z M233.1,214.9c0,4.7-1.6,6.7-3.3,8c-1.7,1.2-3.9,1.4-5.1,1.4c-0.5,0-0.7,0-0.8,0l-0.1,0h-0.1   c0,0-22.6,0-36.7,0c0-0.9-0.1-3.1-0.1-7.8c0-0.3,0-0.7,0-1.1h43v-1.7h-18.2h-24.8c0-2.7-0.1-6.1-0.1-10.2h20.5h4.4H222v-26.2h-10.3   h-4.4h-20.7c-0.2-3.5-0.8-6.6-1.6-9.5h25.5h4.1h15.3V166h-13.7h-5.3h-26.4c-1.4-4.2-3.5-7.6-5.8-10.3c0.1-0.2,0.1-0.4,0.1-0.7   c0,0,0-0.4,0-4.5c0.1-2,0.8-2.5,1.7-3c0.4-0.2,0.9-0.3,1.3-0.4c0.2,0,0.3,0,0.4,0c0.1,0,0.1,0,0.1,0s12,0,17.5,0c2.2,0,3.5,1,4.5,2   c0.5,0.5,0.8,1,1,1.4c0.1,0.2,0.2,0.3,0.2,0.4c0,0.1,0,0.1,0.1,0.1l3.5,8.4l2.5-2.5l3.1-3.1l1-1h12.9l4.5,7.6   C233,165,233.1,203.3,233.1,214.9z" fill="#FFFFFF"/><path data-cppathid="10006" d="M202.1,154.6c0,0-0.8-3-5.3-3c-5.3,0-10.8,0-10.8,0s-3.1-0.1-3.1,2.1c0,1.1,0,2.5,0,3.6c0,1,0,1.7,0,1.7   h21.2l-0.8-1.7L202.1,154.6z" fill="#FFFFFF"/><rect data-cppathid="10007" height="7.4" width="15.8" fill="#FFFFFF" y="140.3" x="214.4"/><rect data-cppathid="10008" height="5.6" width="12.2" fill="#FFFFFF" y="134.4" x="139.1"/><path data-cppathid="10009" d="M163.8,165.9c1.4,1.4,3,2.7,4.5,3.9c1.1,0.8,2.2,1.6,3.3,2.3c2.5,1.6,4.6,2.7,5.8,3.1   c2.4,0.8,1.6-1.4,1.6-1.4s-1-5.2-7.2-12c-0.6-0.6-1.1-1.2-1.8-1.9c-0.2-0.2-0.3-0.3-0.5-0.5c-7.6-7.1-15.2-7.3-15.2-7.3   s0.1-0.2-0.4,0.2c-0.5,0.4-0.1,1.5-0.1,1.5C154.2,156.6,158.9,161,163.8,165.9z" fill="#FFFFFF"/><polygon data-cppathid="10010" points="171.2,223.7 133.7,223.7 133.7,225.2 172.9,225.2 179.6,225.2 179.6,224.2 179.6,223.7    177.2,223.7  " fill="#FFFFFF"/><path data-cppathid="10011" d="M158.2,172.3c3.3,2.6,6.8,4.5,10.1,5.5c1.1,0.3,2.2,0.6,3.3,0.7c0.6,0.1,1.3,0.1,1.9,0.1c0,0,0,0,0,0   c2.6,0,4.9-0.8,6.3-2.6c1-1.2,1.4-2.7,1.4-4.3c0-3.8-2.4-8.4-6.3-12.6c-0.7-0.8-1.5-1.5-2.4-2.3c-0.4-0.3-0.7-0.7-1.1-1   c-5.1-4.1-10.8-6.3-15.2-6.4c-2.6,0-4.9,0.8-6.3,2.6c-1,1.2-1.4,2.7-1.4,4.3C148.4,161.3,152.1,167.5,158.2,172.3z M150.6,152.9   c1.1-1.4,3-2.1,5.4-2.1c0,0,0,0,0,0c4.1,0,9.6,2.1,14.5,6.1c0.3,0.3,0.6,0.6,1,0.8c0.9,0.7,1.7,1.5,2.4,2.3   c3.9,4.1,6.1,8.5,6.1,11.9c0,1.4-0.4,2.7-1.1,3.6c-1.1,1.4-3,2.1-5.4,2.1c-0.6,0-3.5,0-7.2-1.7c-3.7-1.7-7.3-4.4-7.3-4.4   c-5.9-4.7-9.4-10.8-9.4-15C149.5,155,149.8,153.8,150.6,152.9z" fill="#FFFFFF"/></g><g/><g/><g/><g/><g/><g/></svg>