<?xml version="1.0" encoding="UTF-8"?>
<svg xmlns="http://www.w3.org/2000/svg" onmouseup="{ if(window.parent.document.onmouseup) window.parent.document.onmouseup(arguments[0]);}" xml:space="preserve" enable-background="new 0 0 83.5 79.6" viewBox="0 0 83.5 79.6" y="0px" x="0px" id="Layer_1" version="1.1" xmlns:xlink="http://www.w3.org/1999/xlink"><g><polygon data-cppathid="10000" points="43.9,10.9 45,9.8 47.1,7.7 48.6,6.2 51.9,3 48.9,0 44.1,4.8 45.3,5.9 43.2,8 42.1,6.8 37.3,11.6    40.3,14.6  " fill="#FFFFFF"/><path data-cppathid="10001" d="M44.2,11.7l20.4,20.4l9.5,4.3l-4.7-9.1L56.5,14.4c0.1,0.4,0.1,0.8-0.1,1.2c-0.6,2-3.1,3.7-3.1,3.7   s2.1-2.4,2.3-4.1c0.1-0.7,0-1.3-0.2-1.8l-2.1-2.1c0.1,0.4,0.1,0.8-0.1,1.2c-0.6,2-3.1,3.7-3.1,3.7s2.1-2.4,2.3-4.1   c0.1-0.7,0-1.3-0.2-1.8L49,6.9L44.2,11.7z" fill="#FFFFFF"/><path data-cppathid="10002" d="M26.3,62.9l-1.4,2.3l0.4-7.1l-4.2,5.4l-1.3-2.6L18.6,62l-0.9-2.4L14.5,61l-2.1-4.7L7.4,69.5   c0,0,0.4,5.5,8.6,8.7c9,3.5,11.9-0.6,11.9-0.6L33.1,64l-5.4,1.3L26.3,62.9z" fill="#FFFFFF"/><path data-cppathid="10003" d="M83.4,55.1c0,0,0-0.4-0.3-2c-0.4-1.6-1.9-1.7-1.9-1.7l-1.8,0.1c0,0-0.4,0.4-0.8,0.5c-0.4,0-0.6-0.3-0.6-0.3   s-0.4-0.4-1.3-0.3c-0.9,0.1-1.2,1-1.2,1s0.2,0.3-5.3,0.2c-5.5-0.1-8.2-3.2-10.6-4.4c-2.7-1.3-10-0.3-10-0.3l-12.8,1L34,53.1   l2.5,2.3L35.1,57l1.2,0.6l-1.5,1.9l6.8,1.6l-5.4,2.5l1.7,0.3l-2.4,2.8l3,4.1l1.9-0.2c0,0,2.1-0.1,12.4-0.9   c10.2-0.8,10.3-6,12.9-7.9c2.6-1.9,10.3-2.3,10.3-2.3s0.8,0.5,1.4,0.7c0.6,0.2,1-0.5,1.4-0.9c0.4-0.3,1,0.4,1,0.4   C84.4,60.3,83.4,55.1,83.4,55.1z" fill="#FFFFFF"/><path data-cppathid="10004" d="M8.2,45.6C8.8,45,9,44.4,9,44.3l0,0l8.8-24.9l0,0c0-0.1,0.2-0.8,0-1.7c-0.1-0.5-0.3-1-0.7-1.4   c-0.4-0.5-1-0.9-1.7-1.1c-0.6-0.2-1.3-0.2-1.8-0.1c-0.8,0.2-1.4,0.7-1.9,1.1C11.3,16.6,11,16.9,11,17l0,0.1L6.9,28.5l1.3,0.4   l4-11.3c0.1-0.2,0.4-0.6,0.9-0.9c0.3-0.2,0.6-0.4,0.9-0.4c0.3-0.1,0.6-0.1,1,0.1c0.6,0.2,0.9,0.5,1.1,0.7c0.4,0.4,0.5,0.9,0.5,1.3   c0,0.2,0,0.4,0,0.5c0,0.1,0,0.1,0,0.1L7.8,43.8c-0.1,0.1-0.5,0.9-1.1,1.5c-0.4,0.3-0.8,0.6-1.4,0.7c-0.5,0.1-1.2,0.1-2-0.2   c-0.8-0.3-1.2-0.7-1.5-1.1c-0.4-0.7-0.5-1.6-0.5-2.4c0-0.4,0.1-0.7,0.1-1c0-0.1,0.1-0.2,0.1-0.3c0,0,0-0.1,0-0.1c0,0,0,0,0,0   L13.1,8.4c0-0.1,0.6-1.4,1.6-2.4c0.5-0.5,1.1-0.9,1.8-1.1C17.1,4.7,18,4.7,19,5c1,0.3,1.5,0.9,1.9,1.5c0.6,0.9,0.7,2.1,0.6,3.1   c0,0.5-0.1,0.9-0.2,1.2c0,0.2-0.1,0.3-0.1,0.4c0,0,0,0.1,0,0.1c0,0,0,0,0,0l-6.6,18.7l1.3,0.4l6.6-18.7l0,0c0,0,0.5-1.5,0.4-3.3   c-0.1-0.9-0.3-1.8-0.8-2.7c-0.5-0.9-1.4-1.6-2.6-2.1c-1.3-0.5-2.5-0.4-3.5-0.1c-1.5,0.5-2.5,1.6-3.1,2.5c-0.7,0.9-1,1.7-1,1.8l0,0   L0.3,40.6l0,0c0,0-0.4,1.2-0.3,2.6c0.1,0.7,0.2,1.5,0.7,2.2c0.4,0.7,1.2,1.3,2.2,1.7c0,0,0,0,0,0c1,0.4,2,0.4,2.8,0.2   C6.8,47,7.7,46.3,8.2,45.6z" fill="#FFFFFF"/><path data-cppathid="10005" d="M46.4,36.9c-0.3,0.2-0.6,0.3-0.9,0.3c-0.1,0-0.2,0.1-0.3,0.1c0,0-0.1,0-0.1,0c0,0,0,0,0,0l-14.3,2.4l0.2,1   l14.3-2.4l0,0c0,0,1.1-0.2,2.2-0.9c0.5-0.3,1.1-0.8,1.4-1.5c0.4-0.6,0.6-1.5,0.4-2.4c-0.2-1-0.6-1.7-1.1-2.3   c-0.8-0.8-1.9-1-2.7-1.1c-0.8-0.1-1.5,0-1.5,0l0,0l-25,4.2l0,0c0,0-0.9,0.2-1.8,0.7c-0.4,0.3-0.9,0.7-1.2,1.2   c-0.3,0.5-0.4,1.2-0.3,2c0,0,0,0,0,0c0.1,0.8,0.5,1.4,0.9,1.8c0.6,0.7,1.4,0.9,2,1c0.6,0.1,1.1,0.1,1.1,0.1h0l19-3.2l0,0   c0,0,0.6-0.2,1.1-0.6c0.3-0.2,0.5-0.6,0.7-1c0.2-0.4,0.2-0.9,0.1-1.5c-0.1-0.5-0.3-0.9-0.6-1.2c-0.4-0.4-1-0.7-1.4-0.8   c-0.4-0.1-0.7-0.2-0.8-0.2l-0.1,0l-8.8,1.5l0.2,1l8.6-1.4c0.1,0,0.5,0.1,0.9,0.3c0.2,0.1,0.4,0.2,0.6,0.4c0.2,0.2,0.3,0.4,0.3,0.7   c0.1,0.4,0,0.7-0.1,1c-0.1,0.4-0.4,0.6-0.7,0.8c-0.1,0.1-0.2,0.1-0.3,0.2c0,0-0.1,0-0.1,0l-18.9,3.2c-0.1,0-0.7,0-1.4-0.2   c-0.3-0.1-0.7-0.3-1-0.6c-0.3-0.3-0.5-0.7-0.6-1.3c-0.1-0.6,0-1,0.2-1.4c0.3-0.5,0.9-0.9,1.4-1.2c0.3-0.1,0.5-0.2,0.7-0.3   c0.1,0,0.2,0,0.2-0.1c0,0,0,0,0.1,0c0,0,0,0,0,0l25-4.2c0.1,0,1.1-0.1,2.1,0.2c0.5,0.1,1,0.4,1.3,0.7c0.4,0.4,0.7,0.9,0.8,1.7   c0.1,0.7,0,1.3-0.3,1.8C47.8,36.1,47,36.6,46.4,36.9z" fill="#FFFFFF"/></g><g/><g/><g/><g/><g/><g/></svg>